<svg width="90" height="112" viewBox="0 0 90 112" fill="none" xmlns="http://www.w3.org/2000/svg">
<path d="M78.75 112H11.25C5.0368 112 0 106.986 0 100.8V11.2044C0 5.01907 5.0368 0.00488004 11.25 0.00488004H50.625C50.6754 -0.00162668 50.7265 -0.00162668 50.7769 0.00488004H50.8106C50.8637 0.0214445 50.9184 0.0326995 50.9738 0.0384786C51.4698 0.0701351 51.9596 0.166143 52.4306 0.324066H52.6669C52.7707 0.396447 52.8685 0.476967 52.9594 0.564856C53.5722 0.836016 54.1306 1.21546 54.6075 1.68481L88.3575 35.2833C88.829 35.7581 89.2101 36.314 89.4825 36.9241C89.5331 37.0473 89.5725 37.1649 89.6119 37.2937L89.6681 37.4504C89.8252 37.9174 89.9179 38.4034 89.9437 38.8952C89.9486 38.951 89.9619 39.0057 89.9831 39.0576V39.0912C89.9924 39.1279 89.998 39.1654 90 39.2032V100.8C90 103.771 88.8147 106.619 86.7049 108.72C84.5952 110.82 81.7337 112 78.75 112ZM50.625 11.2044V39.2032H78.75L50.625 11.2044Z" fill="#3B516C"/>
</svg>
